<svg width="71" height="71" viewBox="0 0 71 71" fill="none" xmlns="http://www.w3.org/2000/svg">
<path d="M30.9043 1.47363C49.0426 -0.744016 65.7525 11.6555 68.5918 29.4961C69.6319 36.0325 68.7556 42.3256 66.0605 48.3535L65.7939 48.9355C65.6565 49.2306 65.4935 49.4675 65.2744 49.6533C65.055 49.8393 64.7875 49.9662 64.4521 50.0537C57.8891 51.7563 51.5877 51.0171 45.4873 48.1992C44.9362 47.9448 44.3765 47.7077 43.8145 47.4688C43.2532 47.2301 42.689 46.99 42.1338 46.7314C37.3816 44.5179 32.6886 44.6396 27.9023 46.7715H27.9014C24.9245 48.0965 21.8619 49.3076 18.7314 50.2256C14.3045 51.5232 9.8173 51.0823 5.41992 49.9385C5.21349 49.885 5.02038 49.7399 4.86328 49.5762C4.70399 49.4102 4.56811 49.2102 4.47949 49.0254V49.0264C2.29361 44.4904 1.18641 39.7084 1.21777 34.6777C1.20366 17.8263 13.9737 3.54387 30.9043 1.47363ZM65.8291 27.7969C60.7028 5.62317 33.994 -3.79503 15.7578 10.125C4.41352 18.7852 0.435154 34.178 6.20605 47.123C6.27166 47.2701 6.36106 47.4419 6.46289 47.5811C6.57008 47.7275 6.66846 47.8058 6.74219 47.8223L6.74316 47.8232C8.12631 48.1307 9.52783 48.3487 10.9805 48.6025V38.3223C9.89482 39.5841 8.89298 40.7478 7.85449 41.9541L7.75781 42.0664L7.64355 41.9707C7.09768 41.5114 6.61241 41.1049 6.07715 40.6543L5.96191 40.5576L6.05957 40.4424C7.59287 38.6445 9.06366 36.8664 10.6006 35.1514C10.8612 34.8603 10.9825 34.5783 11.0244 34.2744C11.0557 34.0472 11.0424 33.8034 11.0049 33.5273C10.2299 34.4234 9.52411 35.2412 8.78125 36.1025L8.68555 36.2139L8.57227 36.1191C8.01948 35.6605 7.53444 35.2606 6.99609 34.8145L6.87891 34.7168L6.97852 34.6016C8.15872 33.2198 9.26274 31.8385 10.4668 30.5518C10.7688 30.2287 10.9307 29.9059 11.001 29.5566C11.0556 29.2851 11.0546 28.9919 11.0156 28.6611C10.6342 29.0732 10.2911 29.4445 9.92773 29.8369L9.83008 29.9424L9.7207 29.8496C9.20169 29.4133 8.71781 29.008 8.1709 28.5479L8.05566 28.4512L8.15332 28.3359C9.49928 26.7626 10.789 25.2577 12.1367 23.6826L12.251 23.5488L12.3652 23.6826C13.7352 25.2866 15.0264 26.8008 16.3467 28.3467L16.4453 28.4629L16.3281 28.5596C15.7588 29.0327 15.2777 29.4316 14.7617 29.8594L14.6504 29.9521L14.5537 29.8438C14.1746 29.4171 13.8605 29.0708 13.4912 28.6592C13.4409 29.0128 13.4406 29.3128 13.5 29.585C13.5749 29.9283 13.7456 30.2392 14.0469 30.5625C15.2454 31.8474 16.3456 33.2269 17.5166 34.5996L17.6152 34.7158L17.498 34.8125C16.9455 35.2706 16.4676 35.6688 15.9258 36.1182L15.8125 36.2119L15.7168 36.1006C14.958 35.2211 14.2396 34.3875 13.4756 33.501C13.4159 33.8309 13.4234 34.1121 13.4873 34.3662C13.5689 34.6905 13.7453 34.9844 14.0156 35.2861C15.5101 36.9574 16.9399 38.6862 18.4346 40.4404L18.5322 40.5557L18.417 40.6523C17.8754 41.1109 17.3944 41.5196 16.8525 41.9766L16.7383 42.0723L16.6416 41.959C15.5982 40.7424 14.5866 39.563 13.4805 38.2754V48.5547C13.5143 48.5613 13.5454 48.5672 13.5723 48.5723C13.6344 48.5839 13.6814 48.5905 13.7236 48.5898C16.3985 48.5539 18.9517 47.9137 21.4287 46.9482C21.4572 46.9371 21.4963 46.9084 21.542 46.8545C21.5865 46.8019 21.6306 46.7329 21.6689 46.6543C21.7467 46.4947 21.7932 46.316 21.7939 46.1895L21.8096 42.2598C21.8175 37.452 21.804 30.6678 21.7861 27.8359C21.7842 27.5418 21.849 27.2829 22.001 27.0947C22.1572 26.9015 22.3887 26.8038 22.6709 26.8037L34.54 26.8008L47.3721 26.8037C47.6679 26.8019 47.9235 26.8713 48.1016 27.0547C48.2785 27.2371 48.3503 27.504 48.3477 27.835L48.3486 27.8359C48.3349 29.693 48.3537 33.3309 48.3721 36.9697C48.3904 40.6073 48.4082 44.2469 48.3926 46.1055C48.39 46.4163 48.4357 46.6156 48.5361 46.7617C48.6365 46.9077 48.8078 47.0241 49.1074 47.1338C53.6312 48.7929 58.2338 49.0095 62.9316 47.998C63.2329 47.9331 63.4523 47.8292 63.624 47.6807C63.7964 47.5315 63.9316 47.3283 64.0508 47.0488C66.6998 40.8115 67.3531 34.3867 65.8291 27.7969ZM24.6904 29.0732C24.491 29.0725 24.3503 29.1306 24.2588 29.2285C24.1662 29.3277 24.1032 29.4896 24.1064 29.7363V29.7373C24.1358 32.0645 24.1914 40.6902 24.1914 43.0166V46.0205C27.832 43.8742 31.452 42.7944 35.0645 42.7832C38.7349 42.7718 42.3857 43.8617 46.0283 46.0342C46.0413 42.493 46.0642 32.9833 46.0283 29.7402V29.7383C46.0283 29.4774 45.983 29.3182 45.9033 29.2236C45.8286 29.1351 45.6964 29.0732 45.4434 29.0732H24.6904Z" fill="#847F57" stroke="#847F57" stroke-width="0.3"/>
<path d="M35.7988 62.3203C32.8556 62.3218 29.8981 63.2283 26.9258 65.0615C29.709 66.0469 33.0383 66.4827 36.2295 66.4453C39.4009 66.4081 42.4209 65.9032 44.6201 65.0244C41.6853 63.2244 38.7449 62.3189 35.7988 62.3203ZM51.0176 65.25L50.9326 65.291C40.7956 70.2375 30.8484 70.2552 20.8018 65.3662L20.6416 65.2891L20.7451 65.1445C20.7986 65.0702 20.8303 65.015 20.8643 64.9619C20.8915 64.9195 20.9362 64.8484 21.0127 64.8135H21.0137C23.6933 63.6065 26.3725 62.3936 29.0605 61.2041V61.2031C33.5562 59.2166 38.0654 59.2211 42.5537 61.2197H42.5527C45.2893 62.4372 48.0128 63.6931 50.9297 65.0176L51.0176 65.0576V65.25Z" fill="#847F57" stroke="#847F57" stroke-width="0.3"/>
<path d="M28.376 52.0762C32.4762 50.2124 36.5916 50.2856 40.6729 52.1729C41.9061 52.7425 43.1387 53.3275 44.3467 53.9727C48.7631 56.3327 53.279 57.9594 58.2129 57.2373L58.3271 57.2207L58.3721 57.3271C58.393 57.3764 58.4147 57.4258 58.4365 57.4756C58.4514 57.5097 58.4664 57.5442 58.4814 57.5791L58.6045 57.6504L58.4775 57.7891C57.9639 58.3468 57.4562 58.9483 56.9082 59.4873L56.6709 59.7139C56.5339 59.8412 56.3544 59.9085 56.1807 59.9453C56.0055 59.9824 55.8216 59.9911 55.665 59.9932C52.3671 60.0358 49.2501 59.1254 46.2363 57.7461L45.6348 57.4639C43.8104 56.5896 41.9991 55.6541 40.1846 54.7637C36.2962 52.8577 32.4247 52.9196 28.5273 54.7949C25.6208 56.1952 22.7194 57.6914 19.7158 58.8086C18.7467 59.1692 17.7365 59.3703 16.7236 59.5293C15.705 59.6891 14.6947 59.8051 13.6953 59.9971C13.4324 60.0473 13.1552 59.9987 12.8965 59.9082C12.6365 59.8172 12.3833 59.6799 12.1641 59.54C11.9442 59.3997 11.754 59.2538 11.6191 59.1436C11.5516 59.0884 11.4973 59.0418 11.46 59.0088C11.4414 58.9924 11.4269 58.9788 11.417 58.9697C11.4121 58.9653 11.4079 58.9624 11.4053 58.96L11.4014 58.9561V58.9551L11.3994 58.9541L10.2627 57.8545L10.1777 57.7725L10.2383 57.6699L10.2393 57.668C10.2402 57.6664 10.2415 57.664 10.2432 57.6611C10.2466 57.6553 10.2517 57.6471 10.2578 57.6367C10.2701 57.6159 10.2868 57.5867 10.3057 57.5547C10.3433 57.4908 10.3888 57.4144 10.4189 57.3633L10.4658 57.2842L10.5576 57.2891C10.9455 57.3135 11.3385 57.3345 11.7295 57.3633L12.0938 57.3857C15.8485 57.5788 19.3886 56.509 22.8311 54.792C24.6707 53.8759 26.5072 52.9255 28.376 52.0762Z" fill="#847F57" stroke="#847F57" stroke-width="0.3"/>
<path d="M42.6475 31.2168C43.1232 31.2169 43.5174 31.5922 43.5176 32.0645V46.5176H41.417V33.6348C41.417 33.3369 41.1667 33.0872 40.8477 33.0869H27.707C27.3878 33.087 27.1367 33.3368 27.1367 33.6348V46.5176H25.2168V32.0645C25.217 31.5922 25.6112 31.2169 26.0869 31.2168H42.6475Z" fill="#847F57" stroke="#847F57" stroke-width="0.3"/>
</svg>
