<svg width="47" height="47" viewBox="0 0 47 47" fill="none" xmlns="http://www.w3.org/2000/svg">
<g clip-path="url(#clip0_2102_3113)">
<path d="M20.6016 0.982422C32.6936 -0.496011 43.8335 7.76958 45.7266 19.6631C46.4423 24.1612 45.7965 28.4867 43.8613 32.623C43.7697 32.8198 43.6608 32.9786 43.5146 33.1025C43.3684 33.2264 43.1902 33.3108 42.9668 33.3691C38.5914 34.5042 34.3902 34.0114 30.3232 32.1328C29.9558 31.9632 29.5827 31.8048 29.208 31.6455C28.8337 31.4864 28.4581 31.3257 28.0879 31.1533C24.9196 29.6776 21.7906 29.7592 18.5996 31.1807C16.615 32.064 14.5733 32.8714 12.4863 33.4834C9.53511 34.3484 6.54379 34.0545 3.6123 33.292C3.4748 33.2564 3.3459 33.1598 3.24121 33.0508C3.16161 32.9678 3.09051 32.8718 3.03516 32.7773L2.98535 32.6836C1.52809 29.6596 0.789636 26.472 0.810547 23.1182C0.801136 11.8839 9.31452 2.36258 20.6016 0.982422ZM43.8848 18.5303C40.4671 3.74818 22.6612 -2.53066 10.5039 6.74902C2.94101 12.5224 0.288539 22.785 4.13574 31.415C4.17945 31.513 4.23979 31.627 4.30762 31.7197C4.37924 31.8176 4.44494 31.871 4.49414 31.8818C5.41634 32.0868 6.3508 32.2321 7.31934 32.4014V25.5479C6.5955 26.3892 5.92677 27.1644 5.23438 27.9688L5.16992 28.0439L5.09473 27.9805C4.73072 27.6742 4.40672 27.403 4.0498 27.1025L3.97363 27.0381L4.03809 26.9609C5.06019 25.7625 6.04092 24.5778 7.06543 23.4346C7.23937 23.2403 7.31972 23.0514 7.34766 22.8486C7.36845 22.6973 7.35991 22.5353 7.33496 22.3516C6.81841 22.9488 6.34769 23.4933 5.85254 24.0674L5.78906 24.1416L5.71387 24.0791C5.34532 23.7733 5.022 23.5065 4.66309 23.209L4.58496 23.1445L4.65039 23.0674C5.43721 22.1462 6.17384 21.225 6.97656 20.3672C7.17782 20.1519 7.28618 19.9369 7.33301 19.7041C7.36942 19.5229 7.36884 19.3272 7.34277 19.1064C7.08834 19.3813 6.85952 19.6289 6.61719 19.8906L6.55273 19.9609L6.47949 19.8994C6.13352 19.6086 5.81082 19.3389 5.44629 19.0322L5.36914 18.9668L5.43457 18.8906C6.33187 17.8417 7.19138 16.8381 8.08984 15.7881L8.16602 15.6992L8.24219 15.7881C9.15551 16.8574 10.0163 17.8669 10.8965 18.8975L10.9619 18.9746L10.8838 19.0391C10.5042 19.3545 10.1839 19.621 9.83984 19.9062L9.76562 19.9678L9.70117 19.8955C9.44828 19.6109 9.23857 19.3801 8.99219 19.1055C8.95862 19.3412 8.95949 19.5412 8.99902 19.7227C9.04897 19.9516 9.16243 20.1594 9.36328 20.375C10.1622 21.2315 10.8952 22.1514 11.6758 23.0664L11.7422 23.1436L11.6641 23.208C11.2958 23.5134 10.9773 23.7786 10.6162 24.0781L10.54 24.1406L10.4766 24.0664C9.97073 23.4801 9.49171 22.9249 8.98242 22.334C8.94271 22.5537 8.94769 22.7409 8.99023 22.9102C9.04464 23.1264 9.16253 23.3223 9.34277 23.5234C10.3391 24.6376 11.2917 25.7905 12.2881 26.96L12.3535 27.0361L12.2773 27.1016C11.9162 27.4073 11.5947 27.6788 11.2334 27.9834L11.1582 28.0479L11.0938 27.9727C10.3983 27.1618 9.72349 26.3757 8.98633 25.5176V32.3691C9.00866 32.3735 9.02913 32.3775 9.04688 32.3809C9.08829 32.3886 9.11934 32.393 9.14746 32.3926C10.9306 32.3686 12.6329 31.9424 14.2842 31.2988L14.3184 31.2783C14.3311 31.2682 14.3452 31.2543 14.3604 31.2363C14.39 31.2012 14.4188 31.1549 14.4443 31.1025C14.4962 30.9961 14.5278 30.8773 14.5283 30.793C14.5387 29.5345 14.5409 27.1045 14.5391 24.6748L14.5234 18.5566C14.5222 18.3606 14.5646 18.1879 14.666 18.0625C14.7701 17.9338 14.9243 17.8692 15.1123 17.8691L23.0254 17.8662L31.5801 17.8691C31.7773 17.868 31.9477 17.9139 32.0664 18.0361C32.1845 18.1579 32.2324 18.3365 32.2305 18.5576C32.2213 19.7957 32.2338 22.22 32.2461 24.6455C32.2583 27.0706 32.2712 29.4973 32.2607 30.7363C32.259 30.9437 32.2895 31.0764 32.3564 31.1738C32.4234 31.2712 32.5375 31.3488 32.7373 31.4219C35.7531 32.5279 38.8213 32.6733 41.9531 31.999C42.154 31.9557 42.3006 31.8862 42.415 31.7871C42.5299 31.6877 42.6198 31.5524 42.6992 31.3662C44.4654 27.2078 44.9009 22.9237 43.8848 18.5303ZM16.459 19.3818C16.326 19.3813 16.2319 19.42 16.1709 19.4854C16.1092 19.5515 16.0671 19.6597 16.0693 19.8242L16.1055 24.251C16.1171 26.0764 16.126 27.9022 16.126 28.6777V30.6797C18.5531 29.2488 20.9666 28.5289 23.375 28.5215C25.8221 28.5139 28.256 29.241 30.6846 30.6895C30.6933 28.3289 30.7085 21.9883 30.6846 19.8262V19.8252C30.6845 19.6513 30.6537 19.5455 30.6006 19.4824C30.5508 19.4234 30.4627 19.3818 30.2939 19.3818H16.459Z" fill="#494949" stroke="#494949" stroke-width="0.2"/>
<path d="M33.9512 43.3447C32.0066 42.4618 30.1915 41.6241 28.3672 40.8125C25.3751 39.4802 22.369 39.4775 19.3721 40.8018C18.4762 41.1982 17.5821 41.5991 16.6885 42.001L14.0078 43.209C13.9567 43.2322 13.9264 43.2793 13.9082 43.3076C13.8856 43.3429 13.8646 43.3793 13.8291 43.4287L13.7598 43.5254L13.8662 43.5771C20.5641 46.8365 27.196 46.8241 33.9541 43.5264L34.0098 43.499V43.3711L33.9512 43.3447ZM33.9512 43.3447L33.9092 43.4355H33.9102L33.9512 43.3447ZM23.8643 41.5469C21.9021 41.5479 19.9297 42.1509 17.9482 43.373C19.8041 44.0303 22.0244 44.3218 24.1523 44.2969C26.2669 44.272 28.2799 43.9347 29.7461 43.3486C27.7895 42.1485 25.8284 41.5459 23.8643 41.5469Z" fill="#494949" stroke="#494949" stroke-width="0.2"/>
<path d="M18.916 34.7168C21.6495 33.4743 24.3934 33.5231 27.1143 34.7812C27.9364 35.161 28.7581 35.5514 29.5635 35.9814C32.5076 37.5547 35.5176 38.6395 38.8066 38.1582L38.8838 38.1465L38.9131 38.2178C38.927 38.2506 38.9416 38.2833 38.9561 38.3164C38.966 38.3392 38.9763 38.3624 38.9863 38.3857L39.0684 38.4336L38.9834 38.5254C38.69 38.844 38.3997 39.1841 38.0928 39.501L37.7793 39.8086C37.6879 39.8936 37.5681 39.9384 37.4521 39.9629C37.3353 39.9876 37.2128 39.9937 37.1084 39.9951C34.7632 40.0254 32.5555 39.3323 30.4219 38.3086C29.2057 37.7258 27.9977 37.1024 26.7881 36.5088C24.196 35.2383 21.6157 35.2802 19.0176 36.5303C17.0799 37.4638 15.145 38.4603 13.1426 39.2051C12.4965 39.4455 11.8227 39.5796 11.1475 39.6855C10.4685 39.7921 9.79506 39.8701 9.12891 39.998C8.95352 40.0315 8.76823 39.9989 8.5957 39.9385C8.42242 39.8778 8.25449 39.7856 8.1084 39.6924C7.96193 39.5989 7.83501 39.5022 7.74512 39.4287C7.70009 39.3919 7.66355 39.3608 7.63867 39.3389C7.62649 39.3281 7.61696 39.3195 7.61035 39.3135L7.60059 39.3037H7.59961L7.59863 39.3027L6.84082 38.5693L6.78418 38.5146L6.82422 38.4463L6.8252 38.4453C6.82579 38.4443 6.82603 38.4423 6.82715 38.4404C6.82943 38.4366 6.83283 38.4308 6.83691 38.4238C6.84503 38.41 6.85669 38.3913 6.86914 38.3701C6.89416 38.3276 6.92424 38.2763 6.94434 38.2422L6.97559 38.1885L7.03711 38.1924C7.29571 38.2087 7.55768 38.223 7.81836 38.2422L8.30273 38.2666C10.7164 38.339 12.9987 37.6351 15.2197 36.5273C16.4461 35.9167 17.6703 35.2829 18.916 34.7168Z" fill="#494949" stroke="#494949" stroke-width="0.2"/>
<path d="M28.4297 20.8115C28.7469 20.8115 29.0096 21.0611 29.0098 21.376V31.0107H27.6104V22.4229C27.6104 22.2242 27.4432 22.0578 27.2305 22.0576H18.4697C18.2571 22.0578 18.0898 22.2243 18.0898 22.4229V31.0107H16.8105V21.376C16.8107 21.0611 17.0734 20.8115 17.3906 20.8115H28.4297Z" fill="#494949" stroke="#494949" stroke-width="0.2"/>
</g>
<defs>
<clipPath id="clip0_2102_3113">
<rect width="46.911" height="46.911" fill="white"/>
</clipPath>
</defs>
</svg>
